<svg width="24" height="25" viewBox="0 0 24 25" fill="none" xmlns="http://www.w3.org/2000/svg">
<path d="M3.71 5.9H18.924C20.302 5.9 21.297 7.17 20.919 8.448L19.265 14.048C19.01 14.908 18.196 15.5 17.27 15.5H8.112C7.185 15.5 6.37 14.907 6.116 14.048L3.71 5.9ZM3.71 5.9L3 3.5M16.5 21.5C16.8978 21.5 17.2794 21.342 17.5607 21.0607C17.842 20.7794 18 20.3978 18 20C18 19.6022 17.842 19.2206 17.5607 18.9393C17.2794 18.658 16.8978 18.5 16.5 18.5C16.1022 18.5 15.7206 18.658 15.4393 18.9393C15.158 19.2206 15 19.6022 15 20C15 20.3978 15.158 20.7794 15.4393 21.0607C15.7206 21.342 16.1022 21.5 16.5 21.5ZM8.5 21.5C8.89782 21.5 9.27936 21.342 9.56066 21.0607C9.84196 20.7794 10 20.3978 10 20C10 19.6022 9.84196 19.2206 9.56066 18.9393C9.27936 18.658 8.89782 18.5 8.5 18.5C8.10218 18.5 7.72064 18.658 7.43934 18.9393C7.15804 19.2206 7 19.6022 7 20C7 20.3978 7.15804 20.7794 7.43934 21.0607C7.72064 21.342 8.10218 21.5 8.5 21.5Z" stroke="white" stroke-width="1.5" stroke-linecap="round" stroke-linejoin="round"/>
</svg>
