<svg width="32" height="32" viewBox="0 0 32 32" fill="none" xmlns="http://www.w3.org/2000/svg">
<path fill-rule="evenodd" clip-rule="evenodd" d="M8.39199 8.45758C7.67224 9.17733 7.1013 10.0318 6.71178 10.9722C6.32225 11.9126 6.12177 12.9205 6.12177 13.9384C6.12177 14.9563 6.32225 15.9642 6.71178 16.9046C7.1013 17.845 7.67224 18.6994 8.39199 19.4192C9.11174 20.1389 9.9662 20.7099 10.9066 21.0994C11.847 21.4889 12.8549 21.6894 13.8728 21.6894C14.8907 21.6894 15.8986 21.4889 16.839 21.0994C17.7794 20.7099 18.6338 20.1389 19.3536 19.4192C20.7653 17.9575 21.5465 15.9998 21.5288 13.9678C21.5112 11.9358 20.6961 9.992 19.2592 8.55509C17.8223 7.11818 15.8785 6.30312 13.8464 6.28546C11.8144 6.2678 9.85675 7.04896 8.39509 8.46068M18.2593 18.3249C17.6859 18.9111 17.0019 19.3778 16.2469 19.6979C15.492 20.018 14.681 20.1852 13.861 20.1897C13.0409 20.1942 12.2282 20.036 11.4697 19.7242C10.7113 19.4125 10.0222 18.9533 9.44237 18.3734C8.86257 17.7935 8.40357 17.1044 8.09194 16.3459C7.78032 15.5873 7.62226 14.7745 7.62692 13.9545C7.63158 13.1345 7.79887 12.3236 8.1191 11.5686C8.43933 10.8137 8.90613 10.1298 9.49249 9.55653C10.6597 8.4154 12.2298 7.78059 13.8621 7.78986C15.4944 7.79914 17.0571 8.45176 18.2113 9.60609C19.3654 10.7604 20.0177 12.3233 20.0267 13.9556C20.0357 15.5879 19.4006 17.1579 18.2593 18.3249Z" fill="white"/>
<path d="M18.2562 20.546C17.9655 20.2552 17.8023 19.8608 17.8025 19.4496C17.8026 19.0385 17.9661 18.6442 18.257 18.3536C18.5478 18.0629 18.9422 17.8997 19.3534 17.8999C19.7645 17.9 20.1588 18.0635 20.4494 18.3543L24.8328 22.7393C24.9809 22.8823 25.099 23.0533 25.1802 23.2424C25.2614 23.4315 25.3042 23.6349 25.306 23.8407C25.3078 24.0465 25.2685 24.2506 25.1906 24.4411C25.1127 24.6316 24.9976 24.8047 24.852 24.9502C24.7065 25.0957 24.5334 25.2108 24.343 25.2888C24.1525 25.3667 23.9484 25.4059 23.7426 25.4041C23.5367 25.4023 23.3334 25.3596 23.1443 25.2783C22.9551 25.1971 22.7841 25.079 22.6411 24.931L18.2562 20.546Z" fill="white"/>
</svg>
