<svg xmlns="http://www.w3.org/2000/svg" viewBox="0 0 86 30" enable-background="new 0 0 86 30">
    <style type="text/css">.st0{fill:#fff;} .st1{fill:none;} .st2{fill:#fff;}</style>
    <path class="st0"
          d="M80.851 24.891l.405.714h4.313v-.714zM79.953 23.307l.449.791h5.167v-.791zM72.059 24.891v.714h4.316l.405-.714zM72.059 23.307v.791h5.169l.448-.791zM72.059 15.208h3.388v1.358h-3.388zM72.059 16.974h3.388v1.098h-3.388zM72.059 18.558h3.388v1.021h-3.388zM72.059 20.141h3.388v.944h-3.388zM75.673 21.724l-.226.408v-.408h-3.388v.868h6.022l.492-.868zM79.833 18.072l-.283-.51h-1.57l-.283.51zM80.668 19.579l-.566-1.021h-2.674l-.566 1.021zM81.503 21.085l-.523-.944h-4.429l-.524.944zM82.083 21.724v.408l-.226-.408h-2.801l.492.868h6.021v-.868zM82.083 20.141h3.486v.944h-3.486zM82.083 18.558h3.486v1.021h-3.486zM82.083 16.974h3.486v1.098h-3.486zM82.083 15.208h3.486v1.358h-3.486zM64.282 24.891l.525.714h3.875v-.714zM63.119 23.307l.581.791h4.982v-.791zM57.406 24.891h3.469v.714h-3.469zM57.406 23.307h3.469v.791h-3.469zM57.406 21.724h3.469v.868h-3.469zM61.331 16.565l-.965-1.358h-2.96v1.358zM62.401 18.072l-.78-1.098h-4.215v1.098zM63.471 19.579l-.725-1.021h-5.34v1.021zM64.542 21.085l-.671-.944h-6.465v.944h3.469v-.831l.611.831zM65.215 21.724v.31l-.22-.31h-3.04l.638.868h6.089v-.868zM65.215 20.141h3.466v.944h-3.466zM65.215 18.558h3.466v1.021h-3.466zM65.215 16.974h3.466v1.098h-3.466zM65.216 15.208h3.466v1.358h-3.466zM50.93 29.64l.246.36h4.223l-.258-.36zM49.841 28.057l.386.561h4.179l-.403-.561zM48.753 26.474l.439.638h4.133l-.459-.638zM40.779 29.64l-.251.36h4.398l.24-.36zM41.887 28.057l-.392.561h4.356l.375-.561zM42.994 26.474l-.447.638h4.311l.426-.638zM44.101 24.891l-.499.714h4.264l.143-.214.147.214h4.087l-.513-.714zM45.208 23.307l-.553.791h6.505l-.568-.791zM45.005 21.724l.611.868h4.766l.599-.868zM43.89 20.141l.665.944h6.867l.652-.944zM45.537 16.565l-.906-1.358h-4.215l.956 1.358zM46.542 18.072l-.733-1.098h-4.149l.773 1.098zM47.547 19.579l-.681-1.021h-4.091l.719 1.021zM48.876 18.558l-.668 1.021h4.255l.705-1.021zM49.912 16.974l-.719 1.098h4.309l.758-1.098zM55.48 15.208h-4.412l-.888 1.358h4.363zM39.104 22.592c.067-.277.117-.566.15-.868h-3.705c-.03.251-.072.48-.127.686l-.053.182h3.735zM38.504 24.098c.146-.249.272-.513.378-.791h-3.839l-.121.168c-.21.271-.465.461-.763.573l-.143.05h4.487zM31.145 26.474c.62.16 1.304.24 2.052.24.756 0 1.444-.08 2.066-.24h-4.118zM28.468 24.891l.232.242c.175.172.361.328.559.472h7.889c.2-.146.387-.307.562-.482l.22-.233h-9.462zM27.51 23.307c.107.278.233.542.38.791h4.445l-.058-.02c-.271-.091-.526-.278-.77-.556l-.159-.215h-3.839zM27.137 21.724c.034.302.084.591.152.868h3.737l-.039-.131c-.063-.219-.11-.465-.142-.737h-3.707zM27.109 20.141c-.016.208-.023.422-.023.642l.005.302h3.707l-.005-.323c0-.217.007-.425.022-.621h-3.704zM27.406 18.558c-.103.322-.182.663-.235 1.021h3.706l.081-.403c.06-.229.131-.435.217-.618h-3.769zM37.818 16.565l-.118-.12c-1.068-1.057-2.571-1.587-4.504-1.587-1.936 0-3.438.529-4.506 1.587l-.117.12h9.245zM38.805 18.072c-.17-.398-.382-.763-.638-1.098h-9.943c-.255.334-.468.7-.637 1.098h3.894c.206-.246.452-.423.736-.538.295-.122.63-.18 1.007-.18.325 0 .634.054.929.163.295.108.546.295.749.553l.002.002h3.901zM39.22 19.579c-.053-.358-.132-.7-.235-1.021h-3.769c.083.166.153.347.208.54.041.141.074.302.101.481h3.694zM39.304 20.783c0-.219-.008-.433-.023-.642h-3.698c.012.192.018.399.018.621l-.005.323h3.704l.005-.302"/>
    <path class="st0"
          d="M17.054 26.474c.665.132 1.301.199 1.903.199.703 0 1.363-.067 1.98-.199h-3.883zM17.429 24.098c-.248-.075-.487-.165-.716-.267-.285-.132-.543-.281-.77-.447l-.105-.077h-.913v.791h2.504zM23.616 16.565l-.19-.164c-.594-.498-1.302-.871-2.126-1.119-.821-.248-1.733-.373-2.74-.373-.729 0-1.401.075-2.011.224-.614.149-1.214.346-1.804.59v.842h8.871zM24.731 18.072c-.2-.408-.44-.774-.718-1.098h-9.267v1.098h1.102c.153-.103.334-.207.546-.311.291-.139.617-.258.973-.352.36-.096.807-.146 1.343-.146.96 0 1.713.233 2.255.702l.117.107h3.649zM25.219 19.579c-.066-.36-.159-.7-.279-1.021h-3.46c.191.3.319.64.385 1.021h3.354zM25.335 21.085l.001-.136c0-.28-.013-.548-.039-.808h-8.517v.944h8.555zM25.167 22.592c.062-.273.107-.562.135-.868h-8.522v.367h5.069c-.029.178-.072.345-.126.501h3.443zM24.549 24.098c.097-.157.188-.322.271-.494l.129-.297h-3.618c-.139.172-.305.323-.495.45-.21.14-.436.255-.675.342h4.388zM23.42 25.361c.185-.144.358-.301.519-.47h-9.014v.714h8.154l.34-.244M.418 30h13.056v-.36h-13.056M.418 28.618h13.056v-.561h-13.056"/>
    <path class="st0"
          d="M5.036 15.208h3.815v1.358h-3.815zM5.036 16.974h3.815v1.098h-3.815zM5.036 18.558h3.815v1.021h-3.815zM5.036 20.141h3.815v.944h-3.815zM5.036 21.724h3.815v.867h-3.815zM5.036 23.307h3.815v.791h-3.815zM5.036 24.891h3.815v.714h-3.815zM5.036 26.474h3.815v.638h-3.815zM85.571 15.013h-3.486v-6.925l-2.534 4.571h-1.57l-2.533-4.571v6.925h-3.388v-11.157h3.886l2.869 5.067 2.872-5.067h3.883zM68.683 15.013h-3.466v-6.827l-4.85 6.827h-2.96v-11.157h3.469v6.111l4.49-6.111h3.317zM55.481 15.013h-4.412l-3.188-4.87-3.249 4.87h-4.215l5.246-7.451-5.134-7.341h4.398l3.083 4.608 3.167-4.608h4.222l-5.165 7.193zM37.711 5.097c-1.061-1.058-2.567-1.591-4.514-1.591-1.923 0-3.422.529-4.497 1.58-1.075 1.054-1.614 2.506-1.614 4.351 0 1.834.536 3.283 1.604 4.338 1.068 1.057 2.57 1.586 4.507 1.586 1.933 0 3.435-.529 4.504-1.586 1.072-1.055 1.604-2.504 1.604-4.338 0-1.835-.529-3.279-1.594-4.341zm-2.286 6.026c-.115.4-.288.743-.522 1.027-.203.258-.454.445-.749.553-.295.108-.604.162-.929.162-.377 0-.712-.057-1.008-.179-.295-.119-.549-.305-.759-.566-.221-.271-.383-.631-.499-1.075-.112-.448-.166-.976-.166-1.587 0-.682.065-1.248.194-1.699.129-.448.302-.804.522-1.062.244-.278.499-.465.77-.557.268-.094.573-.139.919-.139.343 0 .665.054.963.169.299.112.553.302.763.573.214.268.38.621.499 1.065.119.445.18.994.18 1.649 0 .709-.061 1.265-.177 1.665zM25.336 9.272c0 1.007-.17 1.892-.506 2.662-.339.766-.807 1.397-1.404 1.886-.593.498-1.302.871-2.126 1.119-.821.248-1.732.373-2.74.373-.729 0-1.401-.075-2.011-.224-.614-.149-1.214-.345-1.804-.59v-2.832h.485l.444.356c.183.146.421.292.719.438.291.139.617.257.973.352.359.095.807.146 1.343.146.96 0 1.713-.234 2.255-.702.543-.468.855-1.085.933-1.852h-5.117v-2.276h5.07c-.125-.743-.465-1.298-1.014-1.665-.549-.366-1.197-.553-1.937-.553-.45 0-.851.048-1.2.136-.346.088-.675.203-.987.343-.285.132-.543.281-.77.447l-.533.387h-.485v-2.832c.647-.271 1.323-.478 2.025-.624.702-.146 1.373-.22 2.007-.22.895 0 1.719.108 2.476.322.753.217 1.417.546 1.987.99.282.22 1.085 1.167 1.48 2.174.427 1.091.436 2.238.436 2.238M.418.221h13.056v2.858h-4.622v11.934h-3.815v-11.934h-4.619"/>
    <path class="st1"
          d="M69.651.505c-.248 0-.457.086-.625.259-.169.172-.254.392-.254.657 0 .297.106.531.319.703.166.135.355.202.568.202.242 0 .448-.087.618-.262.17-.175.255-.39.255-.647 0-.255-.086-.471-.257-.648-.171-.177-.379-.265-.624-.265zM75.752 1.703h.712l-.355-.919zM66.971.572h-.143v.549h.161l.266-.027.118-.09.043-.153c0-.103-.041-.178-.12-.226-.059-.035-.166-.053-.325-.053zM63.147 1.047c.06-.052.09-.123.09-.214 0-.084-.029-.15-.086-.2-.056-.049-.143-.073-.26-.073h-.13v.564h.111c.123 0 .216-.026.276-.078zM62.865 1.58h-.105v.687h.128c.21 0 .353-.027.426-.081.074-.053.11-.131.11-.233 0-.116-.043-.207-.129-.274-.087-.066-.229-.1-.43-.1zM83.582 2.273h1.171l-.585-1.489zM81.014 1.703h.713l-.355-.919z"/>
    <path class="st2"
          d="M63.456 1.278c.097-.073.168-.151.21-.235.043-.083.065-.175.065-.277 0-.157-.047-.293-.142-.409-.095-.115-.223-.194-.383-.236-.112-.032-.291-.048-.535-.048h-.421v2.679h.75c.217 0 .386-.031.508-.092.123-.062.222-.154.3-.278.078-.124.117-.261.117-.411 0-.157-.038-.293-.113-.407-.075-.114-.194-.211-.357-.287zm-.696-.718h.13c.117 0 .204.024.26.073.057.049.086.116.086.2 0 .09-.03.161-.09.214-.06.052-.152.078-.276.078h-.111v-.564zm.554 1.626c-.074.053-.216.081-.426.081h-.128v-.687h.105c.201 0 .343.034.43.1.086.067.129.158.129.274 0 .102-.036.179-.11.233zM85.283 2.273l-.861-2.2h-.515l-.858 2.2h-.297v.88h.494v-.401h1.844v.401h.493v-.88h-.299zm-.53 0h-1.171l.586-1.489"/>
    <path class="st2"
          d="M58.721.501c.304 0 .577.128.82.385l.357-.341c-.148-.172-.324-.305-.529-.399-.204-.094-.417-.141-.639-.141-.26 0-.502.063-.727.19-.226.126-.399.293-.519.501-.122.208-.182.445-.182.712 0 .413.133.751.398 1.015.266.265.607.396 1.023.396.226 0 .427-.037.603-.112.176-.074.363-.208.561-.402l-.346-.36c-.147.146-.282.246-.404.302-.123.056-.259.083-.407.083-.173 0-.331-.039-.473-.118-.142-.079-.252-.188-.33-.326-.078-.138-.116-.297-.116-.475 0-.256.088-.472.263-.647.175-.175.391-.262.647-.262zM64.398 2.753h1.463v-.501h-.956v-.705h.956v-.49h-.956v-.484h.956v-.499h-1.463zM60.329 2.753h1.463v-.501h-.956v-.705h.956v-.49h-.956v-.484h.956v-.499h-1.463zM77.771 2.753h.517v-2.202h.896v2.202h.516v-2.679h-1.929zM71.521 1.535h.925v.462h-.925zM81.11.073l-1.033 2.679h.53l.219-.551h1.093l.209.551h.53l-1.031-2.679h-.517zm-.095 1.63l.358-.919.355.919h-.713zM75.847.073l-1.032 2.679h.53l.219-.551h1.093l.209.551h.531l-1.031-2.679h-.517zm-.095 1.63l.357-.919.355.919h-.712zM74.09 1.278c.153-.102.246-.198.28-.29.033-.091.05-.185.05-.28 0-.217-.074-.388-.223-.515-.15-.128-.333-.192-.551-.192-.091 0-.191.015-.299.043-.108.029-.243.116-.404.262l.3.336c.12-.114.237-.17.351-.17.096 0 .173.028.231.084.059.056.088.132.088.227 0 .105-.035.188-.105.25-.07.062-.172.093-.307.093h-.11v.455h.11c.227 0 .377.037.449.109.072.073.108.165.108.275 0 .113-.036.204-.11.272-.074.067-.172.102-.292.102-.181 0-.339-.094-.474-.282l-.39.286c.154.199.297.329.428.389s.28.09.445.09c.262 0 .477-.075.644-.226.167-.152.25-.351.25-.6 0-.338-.157-.576-.47-.716zM67.491.155c-.129-.054-.34-.081-.633-.081h-.541v2.679h.511v-1.134c.26 0 .439-.015.537-.042.167-.049.3-.134.398-.259.097-.124.146-.279.146-.467 0-.168-.037-.313-.112-.434-.075-.121-.177-.208-.307-.262zm-.118.849l-.118.09-.266.027h-.161v-.549h.143c.159 0 .266.018.325.053.079.047.12.123.12.226l-.043.153zM69.657.006c-.25 0-.484.063-.7.188-.217.126-.387.296-.512.511-.123.215-.201.451-.186.707.016.267.068.577.399.991.24.301.6.417 1.001.417.384 0 .71-.135.98-.406.269-.271.404-.602.404-.993 0-.394-.136-.728-.41-1.003-.272-.274-.598-.412-.977-.412zm.621 2.059c-.17.175-.376.262-.618.262-.213 0-.403-.067-.568-.202-.213-.172-.319-.407-.319-.703 0-.265.085-.485.254-.657.168-.173.377-.259.625-.259.245 0 .453.088.624.265.172.177.257.392.257.648s-.085.472-.255.647z"/>
</svg>